<svg xmlns="http://www.w3.org/2000/svg" viewBox="0 0 800 600" width="800" height="600" role="img" aria-label="Foto: ristorante">
  <defs>
    <linearGradient id="sky" x1="0" y1="0" x2="0" y2="1"><stop offset="0" stop-color="#ffd9a8"/><stop offset="1" stop-color="#ff9e6d"/></linearGradient>
    <linearGradient id="sea" x1="0" y1="0" x2="0" y2="1"><stop offset="0" stop-color="#d2683f"/><stop offset="1" stop-color="#7a3b53"/></linearGradient>
  </defs>
  <rect width="800" height="600" fill="url(#sky)"/>
  <circle cx="592" cy="204.00000000000003" r="66" fill="#ffb14d" opacity=".95"/>
  <g transform="translate(0 312)" preserveAspectRatio="none">
    <rect y="0" width="800" height="288" fill="url(#sea)"/>
    <path d="M0 40 q150 -28 300 0 t300 0 t300 0 t300 0 t300 0 V600 H0 Z" fill="#ffffff" opacity="0.12"/><path d="M0 80 q150 -28 300 0 t300 0 t300 0 t300 0 t300 0 V600 H0 Z" fill="#ffffff" opacity="0.1"/><path d="M0 130 q150 -28 300 0 t300 0 t300 0 t300 0 t300 0 V600 H0 Z" fill="#ffffff" opacity="0.08"/>
  </g>
  
  <g transform="translate(400 432)">
    <ellipse cx="0" cy="0" rx="120" ry="34" fill="#ffffff" opacity=".95"/>
    <ellipse cx="0" cy="-4" rx="78" ry="20" fill="none" stroke="#cfe0f2" stroke-width="3"/>
    <circle cx="0" cy="-6" r="12" fill="#0054a4"/>
  </g>
  <rect x="14" y="560" width="138" height="26" rx="13" fill="#0a2a43" opacity=".55"/>
  <text x="28" y="578" font-family="Plus Jakarta Sans, Arial, sans-serif" font-size="13" fill="#fff" opacity=".95">Foto: ristorante</text>
</svg>